<svg xmlns="http://www.w3.org/2000/svg" width="1200" height="760" viewBox="0 0 1200 760" role="img" aria-label="Print conceitual da tela de login do Contratech">
  <defs>
    <linearGradient id="bg" x1="0" y1="0" x2="1" y2="1"><stop offset="0" stop-color="#2c3e50"/><stop offset="1" stop-color="#4ca1af"/></linearGradient>
    <filter id="shadow" x="-20%" y="-20%" width="140%" height="140%"><feDropShadow dx="0" dy="18" stdDeviation="20" flood-color="#000" flood-opacity=".25"/></filter>
  </defs>
  <rect width="1200" height="760" fill="url(#bg)"/>
  <circle cx="180" cy="120" r="230" fill="#4ca1af" opacity=".28"/>
  <circle cx="1040" cy="650" r="270" fill="#2c3e50" opacity=".35"/>
  <rect x="390" y="92" width="420" height="576" rx="24" fill="#fff" opacity=".96" filter="url(#shadow)"/>
  <text x="600" y="172" text-anchor="middle" font-family="Segoe UI, Arial" font-size="50" font-weight="800" fill="#2c3e50">CONTRATECH</text>
  <text x="600" y="212" text-anchor="middle" font-family="Segoe UI, Arial" font-size="21" fill="#7f8c8d">Sistema de Gestão de Contratos</text>
  <line x1="440" y1="245" x2="760" y2="245" stroke="#e2e8f0" stroke-width="2"/>
  <rect x="450" y="285" width="300" height="48" rx="8" fill="#f8fafc" stroke="#cbd5e1"/>
  <text x="472" y="315" font-family="Segoe UI, Arial" font-size="17" fill="#94a3b8">E-mail</text>
  <rect x="450" y="355" width="300" height="48" rx="8" fill="#f8fafc" stroke="#cbd5e1"/>
  <text x="472" y="385" font-family="Segoe UI, Arial" font-size="17" fill="#94a3b8">Senha</text>
  <rect x="704" y="365" width="34" height="28" rx="8" fill="#eef3f8" stroke="#c9d3dc"/>
  <path d="M712 379 Q721 370 730 379 Q721 388 712 379Z" fill="none" stroke="#2c3e50" stroke-width="2"/>
  <circle cx="721" cy="379" r="3" fill="#2c3e50"/>
  <rect x="450" y="434" width="300" height="52" rx="12" fill="#2c3e50"/>
  <rect x="450" y="434" width="300" height="52" rx="12" fill="#4ca1af" opacity=".42"/>
  <text x="600" y="467" text-anchor="middle" font-family="Segoe UI, Arial" font-size="19" font-weight="700" fill="#fff">Entrar</text>
  <rect x="450" y="508" width="300" height="42" rx="9" fill="#f8fafc" stroke="#cbd5e1"/>
  <text x="600" y="535" text-anchor="middle" font-family="Segoe UI, Arial" font-size="16" font-weight="700" fill="#2c3e50">Ajuda</text>
  <text x="600" y="608" text-anchor="middle" font-family="Segoe UI, Arial" font-size="16" fill="#64748b">Perfis: ADMIN • RESPONSÁVEL • VISUALIZADOR</text>
</svg>
