<svg xmlns="http://www.w3.org/2000/svg" width="1200" height="760" viewBox="0 0 1200 760" role="img" aria-label="Print conceitual do dashboard do Contratech">
  <defs><linearGradient id="head" x1="0" y1="0" x2="1" y2="0"><stop offset="0" stop-color="#2c3e50"/><stop offset="1" stop-color="#4ca1af"/></linearGradient><filter id="s"><feDropShadow dx="0" dy="5" stdDeviation="8" flood-opacity=".14"/></filter></defs>
  <rect width="1200" height="760" fill="#e7eef6"/>
  <rect width="1200" height="86" fill="url(#head)"/>
  <text x="42" y="54" font-family="Segoe UI, Arial" font-size="30" font-weight="800" fill="#fff">Contratech</text>
  <text x="1020" y="52" font-family="Segoe UI, Arial" font-size="17" fill="#eaf6f8">Ajuda   Sair</text>
  <g font-family="Segoe UI, Arial" filter="url(#s)">
    <rect x="35" y="116" width="206" height="105" rx="12" fill="#fff"/><text x="58" y="163" font-size="34" font-weight="800" fill="#2c3e50">24</text><text x="58" y="190" font-size="16" font-weight="700" fill="#5d6d7e">Parceiros ativos</text>
    <rect x="260" y="116" width="206" height="105" rx="12" fill="#fff"/><text x="283" y="163" font-size="34" font-weight="800" fill="#34495e">58</text><text x="283" y="190" font-size="16" font-weight="700" fill="#5d6d7e">Contratos cadastrados</text>
    <rect x="485" y="116" width="206" height="105" rx="12" fill="#fff"/><text x="508" y="163" font-size="34" font-weight="800" fill="#2e7d32">31</text><text x="508" y="190" font-size="16" font-weight="700" fill="#5d6d7e">Contratos ativos</text>
    <rect x="710" y="116" width="206" height="105" rx="12" fill="#fff"/><text x="733" y="163" font-size="34" font-weight="800" fill="#c62828">3</text><text x="733" y="190" font-size="16" font-weight="700" fill="#5d6d7e">Contratos vencidos</text>
    <rect x="935" y="116" width="230" height="105" rx="12" fill="#fff"/><text x="958" y="163" font-size="34" font-weight="800" fill="#ef6c00">7</text><text x="958" y="190" font-size="16" font-weight="700" fill="#5d6d7e">A vencer em 30 dias</text>
    <rect x="35" y="255" width="350" height="265" rx="12" fill="#fff"/><text x="60" y="294" font-size="22" font-weight="800" fill="#2c3e50">Contratos por tipo</text><line x1="60" y1="313" x2="355" y2="313" stroke="#e2e8f0"/><text x="60" y="355" font-size="17" fill="#34495e">SERVIÇO</text><text x="322" y="355" font-size="17" font-weight="800" fill="#2c3e50">18</text><text x="60" y="400" font-size="17" fill="#34495e">FORNECIMENTO</text><text x="322" y="400" font-size="17" font-weight="800" fill="#2c3e50">14</text><text x="60" y="445" font-size="17" fill="#34495e">CONSULTORIA</text><text x="322" y="445" font-size="17" font-weight="800" fill="#2c3e50">9</text>
    <rect x="425" y="255" width="350" height="265" rx="12" fill="#fff"/><text x="450" y="294" font-size="22" font-weight="800" fill="#2c3e50">Contratos por status</text><line x1="450" y1="313" x2="745" y2="313" stroke="#e2e8f0"/><text x="450" y="355" font-size="17" fill="#34495e">ATIVO</text><text x="712" y="355" font-size="17" font-weight="800" fill="#2c3e50">31</text><text x="450" y="400" font-size="17" fill="#34495e">CONCLUÍDO</text><text x="712" y="400" font-size="17" font-weight="800" fill="#2c3e50">19</text><text x="450" y="445" font-size="17" fill="#34495e">SUSPENSO</text><text x="712" y="445" font-size="17" font-weight="800" fill="#2c3e50">5</text>
    <rect x="815" y="255" width="350" height="265" rx="12" fill="#fff"/><text x="840" y="294" font-size="22" font-weight="800" fill="#2c3e50">Vencimentos críticos</text><line x1="840" y1="313" x2="1135" y2="313" stroke="#e2e8f0"/><rect x="840" y="335" width="295" height="45" rx="10" fill="#fff4e5"/><text x="855" y="363" font-size="15" fill="#7c2d12">Contrato 1024 vence em 5 dias</text><rect x="840" y="395" width="295" height="45" rx="10" fill="#fee2e2"/><text x="855" y="423" font-size="15" fill="#991b1b">Contrato 0991 está vencido</text><rect x="840" y="455" width="295" height="45" rx="10" fill="#fff4e5"/><text x="855" y="483" font-size="15" fill="#7c2d12">Contrato 1108 vence em 22 dias</text>
    <rect x="35" y="555" width="360" height="80" rx="14" fill="#2c3e50"/><text x="65" y="606" font-size="24" font-weight="800" fill="#fff">Parceiros</text><rect x="420" y="555" width="360" height="80" rx="14" fill="#4ca1af"/><text x="450" y="606" font-size="24" font-weight="800" fill="#fff">Contratos</text><rect x="805" y="555" width="360" height="80" rx="14" fill="#34495e"/><text x="835" y="606" font-size="24" font-weight="800" fill="#fff">Usuários</text>
  </g>
</svg>
