<svg xmlns="http://www.w3.org/2000/svg" width="1200" height="760" viewBox="0 0 1200 760" role="img" aria-label="Print conceitual do cadastro de parceiros">
  <rect width="1200" height="760" fill="#eef3f8"/><rect width="1200" height="82" fill="#2c3e50"/><text x="42" y="52" font-family="Segoe UI, Arial" font-size="29" font-weight="800" fill="#fff">Cadastro de Parceiros</text><text x="970" y="52" font-family="Segoe UI, Arial" font-size="17" fill="#eaf6f8">Ajuda   Voltar</text>
  <rect x="35" y="112" width="1130" height="260" rx="14" fill="#fff"/><text x="60" y="155" font-family="Segoe UI, Arial" font-size="23" font-weight="800" fill="#2c3e50">Dados do parceiro</text>
  <g font-family="Segoe UI, Arial" font-size="15" fill="#475569"><text x="60" y="197">Razão Social / Nome</text><rect x="60" y="208" width="480" height="42" rx="8" fill="#f8fafc" stroke="#cbd5e1"/><text x="575" y="197">CNPJ / CPF</text><rect x="575" y="208" width="260" height="42" rx="8" fill="#f8fafc" stroke="#cbd5e1"/><text x="600" y="235" fill="#334155">12.345.678/0001-90</text><rect x="855" y="208" width="245" height="42" rx="10" fill="#4ca1af"/><text x="912" y="235" fill="#fff" font-weight="800">Consultar CNPJ</text><text x="60" y="285">Endereço</text><rect x="60" y="296" width="410" height="42" rx="8" fill="#f8fafc" stroke="#cbd5e1"/><text x="500" y="285">Cidade</text><rect x="500" y="296" width="260" height="42" rx="8" fill="#f8fafc" stroke="#cbd5e1"/><text x="790" y="285">UF</text><rect x="790" y="296" width="80" height="42" rx="8" fill="#f8fafc" stroke="#cbd5e1"/><text x="900" y="285">E-mail</text><rect x="900" y="296" width="200" height="42" rx="8" fill="#f8fafc" stroke="#cbd5e1"/></g>
  <rect x="35" y="400" width="1130" height="275" rx="14" fill="#fff"/><text x="60" y="443" font-family="Segoe UI, Arial" font-size="23" font-weight="800" fill="#2c3e50">Parceiros ativos</text><g font-family="Segoe UI, Arial"><rect x="60" y="470" width="1080" height="42" fill="#e2e8f0"/><text x="80" y="497" font-size="15" font-weight="800" fill="#334155">Nome</text><text x="480" y="497" font-size="15" font-weight="800" fill="#334155">Documento</text><text x="700" y="497" font-size="15" font-weight="800" fill="#334155">Cidade/UF</text><text x="930" y="497" font-size="15" font-weight="800" fill="#334155">Contato</text><text x="80" y="552" font-size="15" fill="#334155">Alpha Serviços Ltda.</text><text x="480" y="552" font-size="15" fill="#334155">12.345.678/0001-90</text><text x="700" y="552" font-size="15" fill="#334155">Curitiba/PR</text><text x="930" y="552" font-size="15" fill="#334155">contato@alpha.com</text><line x1="60" y1="575" x2="1140" y2="575" stroke="#e2e8f0"/><text x="80" y="622" font-size="15" fill="#334155">Beta Fornecimentos</text><text x="480" y="622" font-size="15" fill="#334155">98.765.432/0001-10</text><text x="700" y="622" font-size="15" fill="#334155">São Paulo/SP</text><text x="930" y="622" font-size="15" fill="#334155">financeiro@beta.com</text></g>
</svg>
