<svg xmlns="http://www.w3.org/2000/svg" width="1200" height="760" viewBox="0 0 1200 760" role="img" aria-label="Print conceitual do cadastro de contratos e cláusulas">
  <rect width="1200" height="760" fill="#eef3f8"/><rect width="1200" height="82" fill="#2c3e50"/><text x="42" y="52" font-family="Segoe UI, Arial" font-size="29" font-weight="800" fill="#fff">Contratos e Cláusulas</text><text x="970" y="52" font-family="Segoe UI, Arial" font-size="17" fill="#eaf6f8">Ajuda   Voltar</text>
  <rect x="35" y="112" width="710" height="575" rx="14" fill="#fff"/><text x="60" y="155" font-family="Segoe UI, Arial" font-size="23" font-weight="800" fill="#2c3e50">Cadastro do contrato</text>
  <g font-family="Segoe UI, Arial" font-size="15" fill="#475569"><text x="60" y="195">Número</text><rect x="60" y="206" width="160" height="40" rx="8" fill="#f8fafc" stroke="#cbd5e1"/><text x="250" y="195">Parceiro</text><rect x="250" y="206" width="455" height="40" rx="8" fill="#f8fafc" stroke="#cbd5e1"/><text x="60" y="278">Objeto</text><rect x="60" y="289" width="645" height="40" rx="8" fill="#f8fafc" stroke="#cbd5e1"/><text x="60" y="361">Tipo</text><rect x="60" y="372" width="190" height="40" rx="8" fill="#f8fafc" stroke="#cbd5e1"/><text x="280" y="361">Valor</text><rect x="280" y="372" width="190" height="40" rx="8" fill="#f8fafc" stroke="#cbd5e1"/><text x="500" y="361">Status</text><rect x="500" y="372" width="205" height="40" rx="8" fill="#f8fafc" stroke="#cbd5e1"/><text x="60" y="444">Início</text><rect x="60" y="455" width="180" height="40" rx="8" fill="#f8fafc" stroke="#cbd5e1"/><text x="270" y="444">Fim</text><rect x="270" y="455" width="180" height="40" rx="8" fill="#f8fafc" stroke="#cbd5e1"/><text x="480" y="444">Pagamento</text><rect x="480" y="455" width="225" height="40" rx="8" fill="#f8fafc" stroke="#cbd5e1"/><rect x="60" y="535" width="190" height="46" rx="10" fill="#4ca1af"/><text x="105" y="564" fill="#fff" font-weight="800">Salvar</text><rect x="275" y="535" width="190" height="46" rx="10" fill="#c62828"/><text x="318" y="564" fill="#fff" font-weight="800">Excluir</text></g>
  <rect x="775" y="112" width="390" height="575" rx="14" fill="#fff"/><text x="800" y="155" font-family="Segoe UI, Arial" font-size="23" font-weight="800" fill="#2c3e50">Cláusulas do contrato</text><g font-family="Segoe UI, Arial" font-size="15" fill="#475569"><text x="800" y="195">Nº</text><rect x="800" y="206" width="90" height="40" rx="8" fill="#f8fafc" stroke="#cbd5e1"/><text x="920" y="195">Descrição</text><rect x="920" y="206" width="210" height="40" rx="8" fill="#f8fafc" stroke="#cbd5e1"/><rect x="800" y="275" width="330" height="88" rx="10" fill="#f8fafc" stroke="#cbd5e1"/><text x="820" y="309">1. Confidencialidade</text><text x="820" y="337">2. Penalidades e multa</text><rect x="800" y="395" width="160" height="44" rx="10" fill="#4ca1af"/><text x="824" y="423" fill="#fff" font-weight="800">Salvar cláusula</text><rect x="970" y="395" width="160" height="44" rx="10" fill="#c62828"/><text x="995" y="423" fill="#fff" font-weight="800">Excluir cláusula</text><rect x="800" y="485" width="330" height="112" rx="12" fill="#eef3f8"/><text x="820" y="520" font-size="16" font-weight="800" fill="#2c3e50">Validações automáticas</text><text x="820" y="552">• Datas consistentes</text><text x="820" y="580">• Número único por contrato</text></g>
</svg>
